<svg xmlns="http://www.w3.org/2000/svg" width="12" height="20" viewBox="0 0 12 20" fill="none">
<path d="M9.99993 19.4999C9.60246 19.4984 9.22158 19.3403 8.93993 19.0599L0.939931 11.0599C0.656559 10.7799 0.49707 10.3982 0.49707 9.99986C0.49707 9.60153 0.656559 9.21979 0.939931 8.93986L8.93993 0.939859C9.31387 0.538553 9.87704 0.373361 10.4085 0.509088C10.94 0.644815 11.355 1.05981 11.4907 1.59128C11.6264 2.12275 11.4612 2.68592 11.0599 3.05986L4.11993 9.99986L11.0599 16.9399C11.3433 17.2198 11.5028 17.6015 11.5028 17.9999C11.5028 18.3982 11.3433 18.7799 11.0599 19.0599C10.7783 19.3403 10.3974 19.4984 9.99993 19.4999Z" fill="white"/>
</svg>
