<svg xmlns="http://www.w3.org/2000/svg" width="18" height="22" viewBox="0 0 18 22" fill="none">
<path d="M6.22461 17.7531C5.65442 17.7531 5.1718 17.5555 4.77674 17.1604C4.38167 16.7654 4.18413 16.2827 4.18413 15.7125V2.8618C4.18413 2.29161 4.38167 1.80898 4.77674 1.4139C5.1718 1.01883 5.65442 0.821289 6.22461 0.821289H15.689C16.2592 0.821289 16.7418 1.01883 17.1369 1.4139C17.532 1.80898 17.7295 2.29161 17.7295 2.8618V15.7125C17.7295 16.2827 17.532 16.7654 17.1369 17.1604C16.7418 17.5555 16.2592 17.7531 15.689 17.7531H6.22461ZM6.22461 16.0599H15.689C15.7758 16.0599 15.8554 16.0237 15.9278 15.9514C16.0002 15.879 16.0363 15.7994 16.0363 15.7125V2.8618C16.0363 2.77496 16.0002 2.69535 15.9278 2.62298C15.8554 2.55062 15.7758 2.51444 15.689 2.51444H6.22461C6.13777 2.51444 6.05817 2.55062 5.98581 2.62298C5.91344 2.69535 5.87725 2.77496 5.87725 2.8618V15.7125C5.87725 15.7994 5.91344 15.879 5.98581 15.9514C6.05817 16.0237 6.13777 16.0599 6.22461 16.0599ZM2.27388 21.7038C1.70371 21.7038 1.22109 21.5062 0.826012 21.1111C0.430936 20.7161 0.233398 20.2334 0.233398 19.6633V5.11938H1.92655V19.6633C1.92655 19.7501 1.96273 19.8297 2.03508 19.9021C2.10746 19.9744 2.18706 20.0106 2.27388 20.0106H13.4314V21.7038H2.27388Z" fill="#A2A2A2"/>
</svg>