<svg xmlns="http://www.w3.org/2000/svg" width="24" height="20" viewBox="0 0 24 20" fill="none">
<path d="M24 2.82058V17.1796C24 17.7932 23.7944 18.3056 23.3833 18.7167C22.9722 19.1279 22.4598 19.3334 21.8462 19.3334H2.15383C1.54017 19.3334 1.02778 19.1279 0.616667 18.7167C0.205556 18.3056 0 17.7932 0 17.1796V2.82058C0 2.20691 0.205556 1.69453 0.616667 1.28341C1.02778 0.872304 1.54017 0.666748 2.15383 0.666748H21.8462C22.4598 0.666748 22.9722 0.872304 23.3833 1.28341C23.7944 1.69453 24 2.20691 24 2.82058ZM1.33333 5.74365H22.6667V2.82058C22.6667 2.61547 22.5812 2.42744 22.4103 2.25648C22.2393 2.08555 22.0513 2.00008 21.8462 2.00008H2.15383C1.94872 2.00008 1.76069 2.08555 1.58973 2.25648C1.4188 2.42744 1.33333 2.61547 1.33333 2.82058V5.74365ZM1.33333 8.92318V17.1796C1.33333 17.3847 1.4188 17.5727 1.58973 17.7437C1.76069 17.9146 1.94872 18.0001 2.15383 18.0001H21.8462C22.0513 18.0001 22.2393 17.9146 22.4103 17.7437C22.5812 17.5727 22.6667 17.3847 22.6667 17.1796V8.92318H1.33333Z" fill="white"/>
</svg>