<svg xmlns="http://www.w3.org/2000/svg" width="20" height="19" viewBox="0 0 20 19" fill="none">
<path d="M5.39894 0.416992H15.3323V12.1564L9.01106 18.4776L7.88227 17.3488C7.77692 17.2435 7.69038 17.1005 7.62265 16.9199C7.55493 16.7393 7.52106 16.5662 7.52106 16.4006V16.0846L8.51439 12.1564H2.68985C2.20823 12.1564 1.78682 11.9758 1.42561 11.6146C1.0644 11.2534 0.883789 10.8319 0.883789 10.3503V8.54426C0.883789 8.43891 0.89884 8.32603 0.928941 8.20563C0.959042 8.08522 0.989143 7.97235 1.01924 7.86699L3.72833 1.50063C3.86379 1.19962 4.08955 0.94376 4.40561 0.733053C4.72167 0.522346 5.05278 0.416992 5.39894 0.416992ZM13.5262 2.22305H5.39894L2.68985 8.54426V10.3503H10.8171L9.59803 15.317L13.5262 11.3888V2.22305ZM15.3323 12.1564V10.3503H18.0414V2.22305H15.3323V0.416992H19.8474V12.1564H15.3323Z" fill="#A2A2A2"/>
</svg>