<svg xmlns="http://www.w3.org/2000/svg" width="21" height="21" viewBox="0 0 21 21" fill="none">
<path fill-rule="evenodd" clip-rule="evenodd" d="M6.43925 13.5426L7.23008 9.84842C7.34522 9.33506 7.60455 8.86525 7.97758 8.49425L15.2034 1.33342C15.9362 0.586976 16.931 0.1556 17.9767 0.130919C18.7654 0.119619 19.5259 0.423824 20.0892 0.975919C21.3201 2.43026 21.1612 4.60207 19.7317 5.86175L12.5059 13.0876C12.1349 13.4606 11.6651 13.72 11.1517 13.8351L7.45758 14.6259H7.25175C6.98168 14.6363 6.72374 14.5134 6.56158 14.2972C6.39943 14.081 6.3537 13.799 6.43925 13.5426ZM9.12591 9.65342C8.97413 9.80052 8.86868 9.98881 8.82258 10.1951L8.29175 12.7193L10.8159 12.1776C11.0222 12.1315 11.2105 12.026 11.3576 11.8743L18.5834 4.64842C19.375 4.01469 19.5321 2.87227 18.9409 2.04842C18.6821 1.8011 18.3346 1.66835 17.9767 1.68009C17.3599 1.70486 16.7769 1.96912 16.3517 2.41675L9.12591 9.65342Z" fill="#A3A19E"/>
<path d="M19.5693 8.84092C19.123 8.84675 18.7626 9.20713 18.7568 9.65342V15.8176C18.7713 16.6889 18.4353 17.5295 17.8242 18.1508C17.2131 18.772 16.3782 19.1219 15.5068 19.1218H5.18259C3.3814 19.0864 1.93813 17.6191 1.93258 15.8176V5.53675C1.96216 3.7331 3.43286 2.28651 5.23675 2.28675H11.4009C11.8496 2.28675 12.2134 1.92298 12.2134 1.47425C12.2134 1.02552 11.8496 0.661753 11.4009 0.661753H5.18259C2.4813 0.661589 0.283102 2.83563 0.253418 5.53675V15.8176C0.253418 18.5399 2.46028 20.7468 5.18259 20.7468H15.4634C18.1815 20.7408 20.3818 18.5357 20.3818 15.8176V9.65342C20.3759 9.20713 20.0155 8.84675 19.5693 8.84092Z" fill="#A3A19E"/>
</svg>