<svg width="21" height="20" viewBox="0 0 21 20" fill="none" xmlns="http://www.w3.org/2000/svg">
<path fill-rule="evenodd" clip-rule="evenodd" d="M11.9501 0.536149L19.2006 5.28621C20.3278 6.02535 20.9991 7.23001 21 8.51547V15.5566C20.9972 16.675 20.5183 17.7465 19.6687 18.5355C18.8192 19.3244 17.6684 19.7662 16.4698 19.7635H4.53024C3.33155 19.7662 2.18084 19.3244 1.33126 18.5355C0.481672 17.7465 0.00280395 16.675 0 15.5566V8.51547C0.000900463 7.23001 0.672156 6.02535 1.7994 5.28621L9.0499 0.536149C9.86481 -0.178716 11.1352 -0.178716 11.9501 0.536149ZM18.5461 17.488C19.0979 16.9769 19.4095 16.2821 19.4123 15.5566V8.51547C19.3975 7.7278 18.9806 6.99403 18.2903 6.54039L11.0398 1.79032L10.9234 1.71132C10.8119 1.60516 10.6593 1.54533 10.5 1.54533C10.3407 1.54533 10.1881 1.60516 10.0766 1.71132L9.96018 1.79032L2.70968 6.54039C2.01936 6.99403 1.60253 7.7278 1.5877 8.51547V15.5566C1.5905 16.2821 1.9021 16.9769 2.45393 17.488C3.00576 17.9992 3.75264 18.2849 4.53024 18.2822H16.4698C17.2474 18.2849 17.9942 17.9992 18.5461 17.488Z" fill="black"/>
<path d="M16.9249 8.90061L11.061 12.7224C10.8874 12.8844 10.649 12.9712 10.4037 12.9618C10.1584 12.9525 9.92846 12.8477 9.76965 12.673L4.0751 8.90061C3.84635 8.71603 3.52507 8.66875 3.24654 8.77867C2.968 8.88859 2.7806 9.13662 2.76325 9.41832C2.7459 9.70001 2.90161 9.96644 3.16481 10.1054L8.77469 13.8383C9.23469 14.2379 9.83975 14.4601 10.4682 14.4605C11.0593 14.4465 11.6228 14.2242 12.0454 13.8383L17.8352 10.0659C18.168 9.83605 18.2556 9.4061 18.0363 9.07836C17.7798 8.74624 17.2853 8.66716 16.9249 8.90061Z" fill="black"/>
</svg>
