<svg xmlns="http://www.w3.org/2000/svg" width="18" height="18" viewBox="0 0 18 18" fill="none">
<path fill-rule="evenodd" clip-rule="evenodd" d="M3.99984 0.666748H13.9998C15.8408 0.666748 17.3332 2.15913 17.3332 4.00008V14.0001C17.3332 15.841 15.8408 17.3334 13.9998 17.3334H3.99984C2.15889 17.3334 0.666504 15.841 0.666504 14.0001V4.00008C0.666504 2.15913 2.15889 0.666748 3.99984 0.666748ZM15.4199 15.4202C15.7966 15.0436 16.0082 14.5327 16.0082 14.0001V4.00008C16.0082 3.46744 15.7966 2.95661 15.4199 2.57998C15.0433 2.20334 14.5325 1.99175 13.9998 1.99175H3.99984C2.89067 1.99175 1.9915 2.89091 1.9915 4.00008V14.0001C1.9915 14.5327 2.2031 15.0436 2.57973 15.4202C2.95637 15.7968 3.4672 16.0084 3.99984 16.0084H13.9998C14.5325 16.0084 15.0433 15.7968 15.4199 15.4202Z" fill="white"/>
<path d="M12.3332 8.37508H9.62484V5.66675C9.62484 5.32157 9.34502 5.04175 8.99984 5.04175C8.65466 5.04175 8.37484 5.32157 8.37484 5.66675V8.37508H5.6665C5.32133 8.37508 5.0415 8.6549 5.0415 9.00008C5.0415 9.34526 5.32133 9.62508 5.6665 9.62508H8.37484V12.3334C8.37484 12.6786 8.65466 12.9584 8.99984 12.9584C9.34502 12.9584 9.62484 12.6786 9.62484 12.3334V9.62508H12.3332C12.6783 9.62508 12.9582 9.34526 12.9582 9.00008C12.9582 8.6549 12.6783 8.37508 12.3332 8.37508Z" fill="white"/>
</svg>