<svg width="19" height="19" viewBox="0 0 19 19" fill="none" xmlns="http://www.w3.org/2000/svg">
<path d="M18.4244 0.626685C18.3 0.337013 18.0165 0.147976 17.7012 0.144531H12.4604C12.0262 0.144531 11.6743 0.496489 11.6743 0.930651C11.6743 1.36481 12.0262 1.71677 12.4604 1.71677H15.804L9.80857 7.71224C9.50203 8.01916 9.50203 8.51637 9.80857 8.82329C10.1155 9.12983 10.6127 9.12983 10.9196 8.82329L16.9151 2.82782V6.17145C16.9151 6.60561 17.267 6.95757 17.7012 6.95757C18.1354 6.95757 18.4873 6.60561 18.4873 6.17145V0.930651C18.4868 0.826156 18.4654 0.72282 18.4244 0.626685Z" fill="white"/>
<path d="M15.6049 8.52981C15.1731 8.53545 14.8244 8.88413 14.8188 9.31593V13.5086C14.813 15.3875 13.2912 16.9093 11.4122 16.9151H5.12329C3.24431 16.9093 1.72253 15.3875 1.71677 13.5086V7.21961C1.72253 5.34063 3.24431 3.81884 5.12329 3.81309H9.31593C9.75009 3.81309 10.102 3.46113 10.102 3.02697C10.102 2.59281 9.75009 2.24085 9.31593 2.24085H5.12329C2.3736 2.24085 0.144531 4.46992 0.144531 7.21961V13.5086C0.144531 16.2583 2.3736 18.4873 5.12329 18.4873H11.4122C14.1619 18.4873 16.391 16.2583 16.391 13.5086V9.31593C16.3854 8.88413 16.0367 8.53545 15.6049 8.52981Z" fill="white"/>
</svg>
