<svg width="17" height="17" viewBox="0 0 17 17" fill="none" xmlns="http://www.w3.org/2000/svg">
<path fill-rule="evenodd" clip-rule="evenodd" d="M13.3572 3.88116V10.3574C13.3572 12.1457 11.9074 13.5954 10.1191 13.5954H3.64288C1.85453 13.5954 0.404785 12.1457 0.404785 10.3574V3.88116C0.404785 2.09281 1.85453 0.643066 3.64288 0.643066H10.1191C11.9074 0.643066 13.3572 2.09281 13.3572 3.88116ZM1.61907 3.88116V10.3574C1.61907 10.8941 1.83229 11.4089 2.21183 11.7884C2.59137 12.1679 3.10613 12.3812 3.64288 12.3812H10.1191C11.2368 12.3812 12.1429 11.4751 12.1429 10.3574V3.88116C12.1429 2.76344 11.2368 1.85735 10.1191 1.85735H3.64288C2.52516 1.85735 1.61907 2.76344 1.61907 3.88116Z" fill="#A2A2A2"/>
<path d="M15.7857 5.70259C15.4522 5.70695 15.183 5.97624 15.1786 6.30973V12.7859C15.1742 14.2371 13.9988 15.4124 12.5476 15.4169H6.07145C5.73614 15.4169 5.46431 15.6887 5.46431 16.024C5.46431 16.3593 5.73614 16.6312 6.07145 16.6312H12.5476C14.6713 16.6312 16.3929 14.9096 16.3929 12.7859V6.30973C16.3885 5.97624 16.1192 5.70695 15.7857 5.70259Z" fill="#A2A2A2"/>
</svg>
