<svg width="24" height="20" viewBox="0 0 24 20" fill="none" xmlns="http://www.w3.org/2000/svg">
<path d="M11.1185 14.3366L7.20885 10.4375C7.04307 10.2723 6.94989 10.0478 6.94989 9.8138C6.94989 9.57976 7.04307 9.35535 7.20885 9.19015C7.5575 8.85606 8.1075 8.85606 8.45616 9.19015L10.8564 11.6009V1.02499C10.8564 0.538724 11.2506 0.144531 11.7369 0.144531C12.2232 0.144531 12.6173 0.538724 12.6173 1.02499V11.6009L15.0176 9.19015C15.3663 8.85606 15.9163 8.85606 16.2649 9.19015C16.4307 9.35535 16.5239 9.57976 16.5239 9.8138C16.5239 10.0478 16.4307 10.2723 16.2649 10.4375L12.3553 14.3366C12.194 14.5052 11.9703 14.6 11.7369 14.5987C11.503 14.6026 11.2784 14.5074 11.1185 14.3366Z" fill="white"/>
<path d="M17.2083 5.82556H18.4766C21.114 5.88287 23.2086 8.06187 23.1618 10.6995V14.693C23.2086 17.3306 21.114 19.5096 18.4766 19.5669L4.99724 19.4831C2.35982 19.4258 0.265161 17.2468 0.311963 14.6091V10.6156C0.281034 9.34336 0.757683 8.11106 1.63671 7.19074C2.51573 6.27041 3.72487 5.73773 4.99724 5.71026H6.26551C6.75177 5.71026 7.14596 6.10445 7.14596 6.59071C7.14596 7.07697 6.75177 7.47117 6.26551 7.47117H4.99724C4.19084 7.49566 3.4278 7.84193 2.87838 8.4327C2.32896 9.02348 2.03888 9.80959 2.07287 10.6156V14.5777C2.03888 15.3837 2.32896 16.1699 2.87838 16.7606C3.4278 17.3514 4.19084 17.6977 4.99724 17.7222L18.4766 17.8689C19.283 17.8444 20.046 17.4981 20.5954 16.9074C21.1448 16.3166 21.4349 15.5305 21.4009 14.7244V10.7309C21.4349 9.92489 21.1448 9.13877 20.5954 8.548C20.046 7.95723 19.283 7.61096 18.4766 7.58646H17.2083C16.722 7.58646 16.3278 7.19227 16.3278 6.70601C16.3278 6.21975 16.722 5.82556 17.2083 5.82556Z" fill="white"/>
</svg>
