<svg width="20" height="20" viewBox="0 0 20 20" fill="none" xmlns="http://www.w3.org/2000/svg">
<path d="M11.3279 9.58641L19.2893 1.65202C19.6219 1.31628 19.6219 0.772374 19.2893 0.436633C18.9626 0.094891 18.423 0.0846274 18.0837 0.413701L10.1224 8.34809L2.26339 0.413701C2.10227 0.241885 1.87808 0.144531 1.64355 0.144531C1.40901 0.144531 1.18482 0.241885 1.0237 0.413701C0.728791 0.738079 0.728791 1.23591 1.0237 1.56029L8.88268 9.48321L0.921338 17.4061C0.588721 17.7419 0.588721 18.2858 0.921338 18.6215C1.07969 18.785 1.29746 18.8762 1.52413 18.8738C1.75515 18.8927 1.98419 18.8184 2.16103 18.6674L10.1224 10.733L18.0837 18.7591C18.2421 18.9226 18.4598 19.0138 18.6865 19.0114C18.9129 19.0124 19.1302 18.9215 19.2893 18.7591C19.6219 18.4234 19.6219 17.8795 19.2893 17.5437L11.3279 9.58641Z" fill="white"/>
</svg>
