<svg width="17" height="16" viewBox="0 0 17 16" fill="none" xmlns="http://www.w3.org/2000/svg">
<path d="M12.3526 3.05029C11.9753 3.05029 11.6695 3.3561 11.6695 3.73333C11.6695 4.11056 11.9753 4.41636 12.3526 4.41636C13.9846 4.42625 15.3066 5.74419 15.3215 7.37619V9.19761C15.3066 10.8296 13.9846 12.1476 12.3526 12.1574H10.3308L11.5785 10.9189C11.8448 10.6522 11.8448 10.2202 11.5785 9.95351C11.4516 9.82332 11.2775 9.7499 11.0958 9.7499C10.914 9.7499 10.7399 9.82332 10.6131 9.95351L8.1997 12.3578C8.13796 12.421 8.08855 12.4951 8.05399 12.5764C7.99047 12.7467 7.99047 12.9342 8.05399 13.1046C8.08855 13.1859 8.13796 13.26 8.1997 13.3231L10.6131 15.7274C10.8798 15.9938 11.3118 15.9938 11.5785 15.7274C11.8448 15.4608 11.8448 15.0288 11.5785 14.7621L10.3308 13.5235H12.3526C14.739 13.5136 16.6726 11.5841 16.6876 9.19761V7.37619C16.6726 4.98973 14.739 3.06023 12.3526 3.05029Z" fill="#A2A2A2"/>
<path d="M9.36551 3.99726C9.42903 3.82692 9.42903 3.63939 9.36551 3.46904C9.32775 3.38953 9.27867 3.3159 9.21979 3.25047L6.8064 0.846186C6.67955 0.716002 6.50549 0.642578 6.32372 0.642578C6.14195 0.642578 5.96789 0.716002 5.84104 0.846186C5.5747 1.11286 5.5747 1.54487 5.84104 1.81154L7.08872 3.05012H5.06693C2.68046 3.06005 0.746891 4.98956 0.731934 7.37601V9.19744C0.746891 11.5839 2.68046 13.5134 5.06693 13.5233C5.44416 13.5233 5.74997 13.2175 5.74997 12.8403C5.74997 12.4631 5.44416 12.1573 5.06693 12.1573C3.4349 12.1474 2.1129 10.8294 2.09801 9.19744V7.37601C2.1129 5.74401 3.4349 4.42607 5.06693 4.41619H7.07961L5.84104 5.65476C5.5747 5.92143 5.5747 6.35344 5.84104 6.62012C6.10771 6.88646 6.53973 6.88646 6.8064 6.62012L9.21979 4.21583C9.27867 4.1504 9.32775 4.07677 9.36551 3.99726Z" fill="#A2A2A2"/>
</svg>
