<svg width="22" height="19" viewBox="0 0 22 19" fill="none" xmlns="http://www.w3.org/2000/svg">
<path d="M21.775 6.60833C21.6667 2.925 18.7417 0 15.0583 0C13.8667 0 12.025 0.866667 11.2667 2.275C11.1583 2.6 10.725 2.6 10.6167 2.275C9.75 0.975 8.01667 0.108333 6.71667 0.108333C3.14167 0.108333 0.108333 3.03333 0 6.60833V6.825C0 8.66667 0.758333 10.4 2.05833 11.7C2.05833 11.7 2.05833 11.7 2.05833 11.8083C2.16667 11.9167 7.36667 16.4667 9.75 18.525C10.4 19.0667 11.375 19.0667 12.025 18.525C14.4083 16.4667 19.5 11.9167 19.7167 11.8083C19.7167 11.8083 19.7167 11.8083 19.7167 11.7C21.0167 10.5083 21.775 8.775 21.775 6.825V6.60833Z" fill="#FF0000"/>
</svg>
