<svg width="17" height="16" viewBox="0 0 17 16" fill="none" xmlns="http://www.w3.org/2000/svg">
<path fill-rule="evenodd" clip-rule="evenodd" d="M15.3977 10.4669L16.008 14.7071C16.0521 15.0335 15.9528 15.3631 15.7358 15.611C15.5188 15.8588 15.2051 16.0006 14.8757 16H14.7071L10.4669 15.3897C9.89209 15.3104 9.35904 15.0453 8.94905 14.6348L1.12716 6.80486C-0.394549 5.22932 -0.372786 2.72492 1.17607 1.17607C2.72492 -0.372786 5.22932 -0.394549 6.80486 1.12716L14.6428 8.94905C15.0533 9.35904 15.3185 9.89209 15.3977 10.4669ZM9.84046 13.7835C10.0626 13.9968 10.3413 14.1418 10.6435 14.2011L14.8275 14.7552L14.2413 10.6034C14.1819 10.3012 14.037 10.0224 13.8237 9.80031L5.99376 1.97841C5.46619 1.4368 4.74217 1.13132 3.98608 1.13132C3.22999 1.13132 2.50598 1.4368 1.97841 1.97841C1.44925 2.50448 1.15172 3.21984 1.15172 3.96601C1.15172 4.71217 1.44925 5.42753 1.97841 5.9536L9.84046 13.7835Z" fill="#A2A2A2"/>
<path d="M4.36353 3.51227C4.12621 3.29114 3.7564 3.29766 3.52703 3.52703C3.29766 3.7564 3.29114 4.12621 3.51227 4.36353L6.89319 7.74445C7.12835 7.97931 7.50929 7.97931 7.74445 7.74445C7.97931 7.50929 7.97931 7.12835 7.74445 6.89319L4.36353 3.51227Z" fill="#A2A2A2"/>
</svg>
