<svg width="17" height="15" viewBox="0 0 17 15" fill="none" xmlns="http://www.w3.org/2000/svg">
<path d="M8.36039 14.782C7.94651 14.782 7.44985 14.6164 7.11875 14.2853C1.7383 9.56711 1.65552 9.48433 1.65552 9.40155L1.57274 9.31878C0.579431 8.32546 0 6.91827 0 5.51108V5.34552C0.0827761 2.36558 2.48328 0.0478516 5.46322 0.0478516C6.37376 0.0478516 7.6154 0.544508 8.36039 1.53782C9.10537 0.544508 10.4298 0.0478516 11.3403 0.0478516C14.3203 0.0478516 16.638 2.36558 16.8035 5.34552V5.51108C16.8035 7.00105 16.2241 8.32546 15.2308 9.40155L15.148 9.48433C15.0653 9.56711 14.403 10.1465 9.6848 14.3681C9.27092 14.6164 8.85704 14.782 8.36039 14.782ZM2.89716 9.15322C3.22827 9.48433 4.88379 10.6432 7.94651 13.292C8.19483 13.5404 8.52594 13.5404 8.77427 13.292C11.9198 10.4776 13.7408 8.9049 14.1547 8.57379L14.2375 8.49102C15.0653 7.66325 15.4791 6.58716 15.4791 5.51108V5.34552C15.3964 3.02779 13.5753 1.28949 11.2576 1.28949C10.6781 1.28949 9.51925 1.70337 9.10537 2.61391C8.93982 2.94502 8.60872 3.11057 8.27761 3.11057C7.94651 3.11057 7.6154 2.94502 7.44985 2.61391C7.03597 1.78615 5.95988 1.28949 5.29767 1.28949C3.06271 1.28949 1.15887 3.11057 1.07609 5.34552V5.59385C1.07609 6.66994 1.57275 7.74603 2.31773 8.49102L2.89716 9.15322Z" fill="#A2A2A2"/>
</svg>
