<svg xmlns="http://www.w3.org/2000/svg" width="22" height="20" viewBox="0 0 22 20" fill="none">
<path fill-rule="evenodd" clip-rule="evenodd" d="M16.6114 1.60416L19.8614 4.85416C21.5488 6.54558 21.5488 9.28358 19.8614 10.975L18.6698 12.1667L16.9473 13.9L11.1948 19.6525H5.69143L2.1381 16.1317C1.3244 15.3189 0.867188 14.2159 0.867188 13.0658C0.867188 11.9157 1.3244 10.8128 2.1381 9.99999L10.4798 1.60416C11.2926 0.79046 12.3955 0.333252 13.5456 0.333252C14.6957 0.333252 15.7986 0.79046 16.6114 1.60416ZM13.5564 14.9942L15.1489 13.4125L16.4164 12.1667L9.29893 5.10333L6.48226 7.91999L13.5564 14.9942ZM10.5231 18.0275H6.3631L3.28643 14.9508C2.2315 13.8901 2.2315 12.1765 3.28643 11.1158L5.33393 9.06833L12.4081 16.1425L10.5231 18.0275ZM17.4998 11.0833L18.7131 9.83749C19.7698 8.7835 19.7746 7.07329 18.7239 6.01333L15.4739 2.76333C14.4132 1.7084 12.6996 1.7084 11.6389 2.76333L10.4473 3.95499L17.4998 11.0833Z" fill="#E7E7E7"/>
<path d="M7.64143 7.35666C7.63849 7.57304 7.72314 7.78142 7.87616 7.93443C8.02917 8.08745 8.23755 8.17211 8.45393 8.16916H9.65643C10.1052 8.16916 10.4689 7.80539 10.4689 7.35666C10.4689 6.90793 10.1052 6.54416 9.65643 6.54416H8.45393C8.0052 6.54416 7.64143 6.90793 7.64143 7.35666Z" fill="#E7E7E7"/>
<path d="M12.4623 12.1667C12.4593 12.383 12.544 12.5914 12.697 12.7444C12.85 12.8974 13.0584 12.9821 13.2748 12.9792H14.4773C14.926 12.9792 15.2898 12.6154 15.2898 12.1667C15.2898 11.7179 14.926 11.3542 14.4773 11.3542H13.2748C12.826 11.3542 12.4623 11.7179 12.4623 12.1667Z" fill="#E7E7E7"/>
<path d="M10.0464 9.7725C10.0523 10.2188 10.4126 10.5792 10.8589 10.585H12.0831C12.5438 10.585 12.9173 10.2115 12.9173 9.75083C12.9173 9.29013 12.5438 8.91666 12.0831 8.91666H10.8589C10.6367 8.91941 10.425 9.01188 10.272 9.17306C10.119 9.33424 10.0376 9.55043 10.0464 9.7725Z" fill="#E7E7E7"/>
</svg>