<svg xmlns="http://www.w3.org/2000/svg" width="22" height="22" viewBox="0 0 22 22" fill="none">
<path d="M10.6616 21.36C7.81382 21.36 5.13655 20.2492 3.12272 18.2319C1.10889 16.2146 0 13.5327 0 10.68C0 7.82732 1.10889 5.14543 3.12272 3.12812C5.13655 1.11081 7.81382 0 10.6616 0C13.5093 0 16.1866 1.11081 18.2004 3.12812C20.2143 5.14543 21.3232 7.82732 21.3232 10.68C21.3232 13.5327 20.2143 16.2146 18.2004 18.2319C16.1866 20.2492 13.5093 21.36 10.6616 21.36ZM10.6616 0.996649C8.07973 0.996649 5.6521 2.00372 3.82641 3.83302C2.00071 5.66233 0.99493 8.0937 0.99493 10.68C0.99493 13.2663 2.00026 15.6981 3.82641 17.527C5.6521 19.3558 8.07973 20.3634 10.6616 20.3634C13.2434 20.3634 15.671 19.3563 17.4967 17.527C19.3224 15.6981 20.3282 13.2663 20.3282 10.68C20.3282 8.0937 19.3229 5.66187 17.4967 3.83302C15.671 2.00417 13.2434 0.996649 10.6616 0.996649Z" fill="white"/>
<path d="M5.54688 17.1685C5.54688 17.1685 8.41996 16.8061 8.41996 14.184V10.1439C8.41996 10.1439 8.35303 8.23216 8.98029 6.98091C9.71699 5.51176 11.3532 4.50786 15.1877 4.67548C15.1877 4.67548 10.2556 5.04334 10.3673 9.36018H13.7193L12.3626 10.847H10.3673V13.7889C10.3673 13.7889 10.5591 17.168 5.54688 17.168V17.1685Z" fill="white"/>
</svg>