<svg xmlns="http://www.w3.org/2000/svg" width="18" height="14" viewBox="0 0 18 14" fill="none">
<path d="M18 1.61537V12.3846C18 12.8449 17.8458 13.2292 17.5375 13.5375C17.2292 13.8458 16.8449 14 16.3846 14H1.61538C1.15513 14 0.770833 13.8458 0.4625 13.5375C0.154167 13.2292 0 12.8449 0 12.3846V1.61537C0 1.15512 0.154167 0.770833 0.4625 0.4625C0.770833 0.154167 1.15513 0 1.61538 0H16.3846C16.8449 0 17.2292 0.154167 17.5375 0.4625C17.8458 0.770833 18 1.15512 18 1.61537ZM1 3.80768H17V1.61537C17 1.46154 16.9359 1.32052 16.8077 1.1923C16.6795 1.0641 16.5385 1 16.3846 1H1.61538C1.46154 1 1.32052 1.0641 1.1923 1.1923C1.0641 1.32052 1 1.46154 1 1.61537V3.80768ZM1 6.19233V12.3846C1 12.5385 1.0641 12.6795 1.1923 12.8077C1.32052 12.9359 1.46154 13 1.61538 13H16.3846C16.5385 13 16.6795 12.9359 16.8077 12.8077C16.9359 12.6795 17 12.5385 17 12.3846V6.19233H1Z" fill="#86868B"/>
</svg>