<svg width="19" height="19" viewBox="0 0 19 19" fill="none" xmlns="http://www.w3.org/2000/svg">
<path d="M15.3176 7.25492L11.7155 3.65284C11.0563 3.00504 9.99964 3.00504 9.34049 3.65284L7.10008 5.86159C6.97266 5.98957 6.82568 6.09647 6.66466 6.17825L4.23424 7.39742C3.7459 7.6402 3.40429 8.10323 3.31641 8.64147C3.22853 9.17971 3.40514 9.72734 3.79091 10.1128L5.90466 12.2266L3.33966 14.7916C3.10813 15.0234 3.10813 15.3989 3.33966 15.6308C3.45275 15.7393 3.6025 15.8015 3.75924 15.8049C3.91666 15.8048 4.06758 15.7421 4.17883 15.6308L6.74383 13.0658L8.85758 15.1795C9.24307 15.5653 9.7907 15.7419 10.3289 15.654C10.8672 15.5661 11.3302 15.2245 11.573 14.7362L12.7922 12.2899C12.8739 12.1289 12.9808 11.9819 13.1088 11.8545L15.3176 9.64575C15.9758 8.98472 15.9758 7.91595 15.3176 7.25492Z" fill="#BDBDBD"/>
</svg>
