<svg xmlns="http://www.w3.org/2000/svg" width="27" height="27" viewBox="0 0 27 27" fill="none">
<path d="M5.03605 21.4984C6.27564 20.6066 7.59094 19.9012 8.98197 19.3824C10.373 18.8636 11.879 18.6042 13.5 18.6042C15.121 18.6042 16.627 18.8636 18.018 19.3824C19.4091 19.9012 20.7244 20.6066 21.9639 21.4984C22.9268 20.5019 23.7013 19.3249 24.2875 17.9675C24.8736 16.6102 25.1667 15.121 25.1667 13.5C25.1667 10.2674 24.0304 7.51476 21.7578 5.24219C19.4852 2.96962 16.7326 1.83333 13.5 1.83333C10.2674 1.83333 7.51476 2.96962 5.24219 5.24219C2.96962 7.51476 1.83333 10.2674 1.83333 13.5C1.83333 15.121 2.1264 16.6102 2.71253 17.9675C3.29868 19.3249 4.07319 20.5019 5.03605 21.4984ZM13.5008 14.2292C12.2719 14.2292 11.2354 13.8074 10.3912 12.9638C9.54708 12.1202 9.125 11.0839 9.125 9.85501C9.125 8.62607 9.54679 7.58953 10.3904 6.7454C11.234 5.90125 12.2702 5.47917 13.4992 5.47917C14.7281 5.47917 15.7646 5.90097 16.6088 6.74456C17.4529 7.58814 17.875 8.62439 17.875 9.85333C17.875 11.0823 17.4532 12.1188 16.6096 12.9629C15.766 13.8071 14.7298 14.2292 13.5008 14.2292ZM13.5 26.625C11.6696 26.625 9.95606 26.2843 8.35938 25.6028C6.76269 24.9213 5.37353 23.9897 4.1919 22.8081C3.01028 21.6265 2.07872 20.2373 1.39722 18.6406C0.715739 17.0439 0.375 15.3304 0.375 13.5C0.375 11.6696 0.715739 9.95606 1.39722 8.35938C2.07872 6.76269 3.01028 5.37354 4.1919 4.1919C5.37353 3.01028 6.76269 2.07872 8.35938 1.39722C9.95606 0.715741 11.6696 0.375 13.5 0.375C15.3304 0.375 17.0439 0.715741 18.6406 1.39722C20.2373 2.07872 21.6265 3.01028 22.8081 4.1919C23.9897 5.37354 24.9213 6.76269 25.6028 8.35938C26.2843 9.95606 26.625 11.6696 26.625 13.5C26.625 15.3304 26.2843 17.0439 25.6028 18.6406C24.9213 20.2373 23.9897 21.6265 22.8081 22.8081C21.6265 23.9897 20.2373 24.9213 18.6406 25.6028C17.0439 26.2843 15.3304 26.625 13.5 26.625ZM13.5 25.1667C14.8443 25.1667 16.1671 24.9316 17.4683 24.4613C18.7696 23.9911 19.8942 23.3475 20.8422 22.5304C19.8942 21.7695 18.7977 21.1679 17.5525 20.7258C16.3073 20.2836 14.9565 20.0625 13.5 20.0625C12.0435 20.0625 10.688 20.2789 9.43351 20.7118C8.17896 21.1446 7.08706 21.7508 6.15784 22.5304C7.10575 23.3475 8.23036 23.9911 9.53166 24.4613C10.8329 24.9316 12.1557 25.1667 13.5 25.1667ZM13.5 12.7708C14.3189 12.7708 15.0097 12.4894 15.5725 11.9267C16.1353 11.3639 16.4167 10.6731 16.4167 9.85417C16.4167 9.03526 16.1353 8.34443 15.5725 7.78166C15.0097 7.21889 14.3189 6.9375 13.5 6.9375C12.6811 6.9375 11.9903 7.21889 11.4275 7.78166C10.8647 8.34443 10.5833 9.03526 10.5833 9.85417C10.5833 10.6731 10.8647 11.3639 11.4275 11.9267C11.9903 12.4894 12.6811 12.7708 13.5 12.7708Z" fill="white"/>
</svg>