<svg xmlns="http://www.w3.org/2000/svg" width="16" height="21" viewBox="0 0 16 21" fill="none">
<path d="M1.93181 14.2024C1.6007 13.6305 1.35237 13.0435 1.18681 12.4415C1.02125 11.8395 0.938477 11.2224 0.938477 10.5903C0.938477 8.57353 1.63833 6.85778 3.03802 5.44303C4.43772 4.02828 6.14595 3.32091 8.16272 3.32091H8.32075L6.8759 1.87606L8.14014 0.611816L11.7523 4.22394L8.14014 7.83606L6.8759 6.57182L8.32075 5.12697H8.16272C6.65767 5.12697 5.37838 5.6575 4.32484 6.71856C3.2713 7.77962 2.74454 9.0702 2.74454 10.5903C2.74454 10.9816 2.78969 11.3654 2.87999 11.7417C2.97029 12.1179 3.10575 12.4867 3.28636 12.8479L1.93181 14.2024ZM8.1853 20.4785L4.57317 16.8664L8.1853 13.2542L9.44954 14.5185L8.00469 15.9633H8.16272C9.66777 15.9633 10.9471 15.4328 12.0006 14.3717C13.0541 13.3107 13.5809 12.0201 13.5809 10.5C13.5809 10.1087 13.5358 9.7249 13.4454 9.34863C13.3551 8.97237 13.2197 8.60363 13.0391 8.24242L14.3936 6.88788C14.7247 7.4598 14.9731 8.04677 15.1386 8.64879C15.3042 9.25081 15.387 9.86788 15.387 10.5C15.387 12.5168 14.6871 14.2325 13.2874 15.6473C11.8877 17.062 10.1795 17.7694 8.16272 17.7694H8.00469L9.44954 19.2142L8.1853 20.4785Z" fill="#A2A2A2"/>
</svg>