<svg width="18" height="15" viewBox="0 0 18 15" fill="none" xmlns="http://www.w3.org/2000/svg">
<path d="M1.24993 15C1.66189 14.9946 1.99454 14.662 1.99993 14.25L1.99993 12.25C1.98914 11.1196 2.43343 10.0323 3.23282 9.23289C4.0322 8.43351 5.11948 7.98921 6.24993 8L15.4399 8L10.7199 12.75C10.549 13.0506 10.6058 13.429 10.8572 13.6662C11.1087 13.9035 11.4898 13.9381 11.7799 13.75L17.7799 7.75C17.8477 7.68064 17.902 7.59925 17.9399 7.51C18.02 7.32496 18.02 7.11504 17.9399 6.93C17.902 6.84075 17.8477 6.75936 17.7799 6.69L11.7799 0.69C11.4871 0.397546 11.0127 0.397546 10.7199 0.69C10.4275 0.982817 10.4275 1.45718 10.7199 1.75L15.4399 6.5L6.24993 6.5C4.72002 6.48378 3.24804 7.08437 2.16617 8.16624C1.0843 9.24811 0.483708 10.7201 0.499928 12.25L0.499928 14.25C0.505314 14.662 0.837965 14.9946 1.24993 15Z" fill="#BDBDBD"/>
</svg>
