<svg xmlns="http://www.w3.org/2000/svg" width="19" height="18" viewBox="0 0 19 18" fill="none">
<path d="M17.3246 18L10.8593 11.7C10.3462 12.1 9.75612 12.4167 9.08906 12.65C8.42201 12.8833 7.71219 13 6.95962 13C5.09528 13 3.51744 12.3708 2.22609 11.1125C0.934738 9.85417 0.289062 8.31667 0.289062 6.5C0.289062 4.68333 0.934738 3.14583 2.22609 1.8875C3.51744 0.629167 5.09528 0 6.95962 0C8.82395 0 10.4018 0.629167 11.6931 1.8875C12.9845 3.14583 13.6302 4.68333 13.6302 6.5C13.6302 7.23333 13.5104 7.925 13.271 8.575C13.0315 9.225 12.7066 9.8 12.2961 10.3L18.7614 16.6L17.3246 18ZM6.95962 11C8.24241 11 9.33279 10.5625 10.2308 9.6875C11.1287 8.8125 11.5777 7.75 11.5777 6.5C11.5777 5.25 11.1287 4.1875 10.2308 3.3125C9.33279 2.4375 8.24241 2 6.95962 2C5.67682 2 4.58644 2.4375 3.68848 3.3125C2.79052 4.1875 2.34154 5.25 2.34154 6.5C2.34154 7.75 2.79052 8.8125 3.68848 9.6875C4.58644 10.5625 5.67682 11 6.95962 11Z" fill="#9D9B98"/>
</svg>