<svg width="19" height="18" viewBox="0 0 19 18" fill="none" xmlns="http://www.w3.org/2000/svg">
<path d="M17.1137 18L10.6484 11.7C10.1353 12.1 9.54518 12.4167 8.87812 12.65C8.21107 12.8833 7.50125 13 6.74868 13C4.88434 13 3.3065 12.3708 2.01515 11.1125C0.7238 9.85417 0.078125 8.31667 0.078125 6.5C0.078125 4.68333 0.7238 3.14583 2.01515 1.8875C3.3065 0.629167 4.88434 0 6.74868 0C8.61301 0 10.1909 0.629167 11.4822 1.8875C12.7736 3.14583 13.4192 4.68333 13.4192 6.5C13.4192 7.23333 13.2995 7.925 13.06 8.575C12.8206 9.225 12.4956 9.8 12.0851 10.3L18.5504 16.6L17.1137 18ZM6.74868 11C8.03148 11 9.12186 10.5625 10.0198 9.6875C10.9178 8.8125 11.3668 7.75 11.3668 6.5C11.3668 5.25 10.9178 4.1875 10.0198 3.3125C9.12186 2.4375 8.03148 2 6.74868 2C5.46588 2 4.3755 2.4375 3.47754 3.3125C2.57958 4.1875 2.1306 5.25 2.1306 6.5C2.1306 7.75 2.57958 8.8125 3.47754 9.6875C4.3755 10.5625 5.46588 11 6.74868 11Z" fill="#E3E3E3"/>
</svg>
