<svg xmlns="http://www.w3.org/2000/svg" width="17" height="18" viewBox="0 0 17 18" fill="none">
<path fill-rule="evenodd" clip-rule="evenodd" d="M6.21631 0.658022L14.9767 5.72094C16.0947 6.36945 16.7828 7.56413 16.7828 8.85656C16.7828 10.149 16.0947 11.3437 14.9767 11.9922L6.21631 17.0551C5.09437 17.7029 3.71204 17.7026 2.5903 17.0545C1.46857 16.4064 0.77798 15.2089 0.778809 13.9134V3.79969C0.77798 2.50419 1.46857 1.30671 2.5903 0.658602C3.71204 0.0104911 5.09437 0.0102697 6.21631 0.658022ZM5.12881 15.1701L13.8892 10.1193C14.34 9.86194 14.6171 9.38164 14.6142 8.86261C14.6189 8.33993 14.3419 7.85518 13.8892 7.59386L5.12881 2.54302C4.9097 2.41132 4.65944 2.34041 4.40381 2.3376C3.59633 2.3376 2.94173 2.9922 2.94173 3.79969V13.9134C2.94173 14.3012 3.09577 14.6731 3.36996 14.9473C3.64416 15.2215 4.01605 15.3755 4.40381 15.3755C4.65944 15.3727 4.9097 15.3018 5.12881 15.1701Z" fill="white"/>
</svg>