<svg xmlns="http://www.w3.org/2000/svg" width="21" height="21" viewBox="0 0 21 21" fill="none">
<path fill-rule="evenodd" clip-rule="evenodd" d="M0.666504 4.75008C0.666504 2.49492 2.49467 0.666748 4.74984 0.666748C7.005 0.666748 8.83317 2.49492 8.83317 4.75008C8.83317 7.00524 7.005 8.83342 4.74984 8.83342C2.49467 8.83342 0.666504 7.00524 0.666504 4.75008ZM7.08317 4.75008C7.08317 3.46142 6.0385 2.41675 4.74984 2.41675C3.46117 2.41675 2.4165 3.46142 2.4165 4.75008C2.4165 6.03875 3.46117 7.08342 4.74984 7.08342C6.0385 7.08342 7.08317 6.03875 7.08317 4.75008Z" fill="#0A84FF"/>
<path fill-rule="evenodd" clip-rule="evenodd" d="M12.3332 4.75008C12.3332 2.49492 14.1613 0.666748 16.4165 0.666748C18.6717 0.666748 20.4998 2.49492 20.4998 4.75008C20.4998 7.00524 18.6717 8.83342 16.4165 8.83342C14.1613 8.83342 12.3332 7.00524 12.3332 4.75008ZM18.7498 4.75008C18.7498 3.46142 17.7052 2.41675 16.4165 2.41675C15.1278 2.41675 14.0832 3.46142 14.0832 4.75008C14.0832 6.03875 15.1278 7.08342 16.4165 7.08342C17.7052 7.08342 18.7498 6.03875 18.7498 4.75008Z" fill="#0A84FF"/>
<path fill-rule="evenodd" clip-rule="evenodd" d="M0.666504 16.4167C0.666504 14.1616 2.49467 12.3334 4.74984 12.3334C7.005 12.3334 8.83317 14.1616 8.83317 16.4167C8.83317 18.6719 7.005 20.5001 4.74984 20.5001C2.49467 20.5001 0.666504 18.6719 0.666504 16.4167ZM7.08317 16.4167C7.08317 15.1281 6.0385 14.0834 4.74984 14.0834C3.46117 14.0834 2.4165 15.1281 2.4165 16.4167C2.4165 17.7054 3.46117 18.7501 4.74984 18.7501C6.0385 18.7501 7.08317 17.7054 7.08317 16.4167Z" fill="#0A84FF"/>
<path fill-rule="evenodd" clip-rule="evenodd" d="M12.3332 16.4167C12.3332 14.1616 14.1613 12.3334 16.4165 12.3334C18.6717 12.3334 20.4998 14.1616 20.4998 16.4167C20.4998 18.6719 18.6717 20.5001 16.4165 20.5001C14.1613 20.5001 12.3332 18.6719 12.3332 16.4167ZM18.7498 16.4167C18.7498 15.1281 17.7052 14.0834 16.4165 14.0834C15.1278 14.0834 14.0832 15.1281 14.0832 16.4167C14.0832 17.7054 15.1278 18.7501 16.4165 18.7501C17.7052 18.7501 18.7498 17.7054 18.7498 16.4167Z" fill="#0A84FF"/>
</svg>