<svg width="20" height="21" viewBox="0 0 20 21" fill="none" xmlns="http://www.w3.org/2000/svg">
<mask id="mask0_2025_7386" style="mask-type:alpha" maskUnits="userSpaceOnUse" x="0" y="0" width="20" height="21">
<rect width="20" height="20.6065" fill="#D9D9D9"/>
</mask>
<g mask="url(#mask0_2025_7386)">
<path d="M5.83398 18.031C5.37565 18.031 4.98329 17.8629 4.6569 17.5266C4.33051 17.1903 4.16732 16.7861 4.16732 16.3138V5.15198H3.33398V3.43478H7.50065V2.57617H12.5007V3.43478H16.6673V5.15198H15.834V16.3138C15.834 16.7861 15.6708 17.1903 15.3444 17.5266C15.018 17.8629 14.6257 18.031 14.1673 18.031H5.83398ZM14.1673 5.15198H5.83398V16.3138H14.1673V5.15198ZM7.50065 14.5966H9.16732V6.86919H7.50065V14.5966ZM10.834 14.5966H12.5007V6.86919H10.834V14.5966Z" fill="#E3567C"/>
</g>
</svg>
