<svg xmlns="http://www.w3.org/2000/svg" width="19" height="18" viewBox="0 0 19 18" fill="none">
<path d="M14.4387 18.1243H4.50539V6.38493L10.8266 0.0637207L11.9554 1.19251C12.0607 1.29786 12.1473 1.44084 12.215 1.62145C12.2827 1.80205 12.3166 1.97513 12.3166 2.14069V2.45675L11.3233 6.38493H17.1478C17.6294 6.38493 18.0508 6.56554 18.4121 6.92675C18.7733 7.28796 18.9539 7.70938 18.9539 8.19099V9.99705C18.9539 10.1024 18.9388 10.2153 18.9087 10.3357C18.8786 10.4561 18.8485 10.569 18.8184 10.6743L16.1093 17.0407C15.9739 17.3417 15.7481 17.5976 15.4321 17.8083C15.116 18.019 14.7849 18.1243 14.4387 18.1243ZM6.31145 16.3183H14.4387L17.1478 9.99705V8.19099H9.02054L10.2396 3.22433L6.31145 7.15251V16.3183ZM4.50539 6.38493V8.19099H1.79629V16.3183H4.50539V18.1243H-0.00976562V6.38493H4.50539Z" fill="#A2A2A2"/>
</svg>